<svg width="24" height="16" viewBox="0 0 24 16" fill="none" xmlns="http://www.w3.org/2000/svg">
<g clip-path="url(#clip0_2882_25442)">
<mask id="mask0_2882_25442" style="mask-type:luminance" maskUnits="userSpaceOnUse" x="0" y="0" width="24" height="16">
<path d="M22 0H2C0.89543 0 0 0.89543 0 2V14C0 15.1046 0.89543 16 2 16H22C23.1046 16 24 15.1046 24 14V2C24 0.89543 23.1046 0 22 0Z" fill="white"/>
</mask>
<g mask="url(#mask0_2882_25442)">
<path fill-rule="evenodd" clip-rule="evenodd" d="M0 0H24V16H0V0Z" fill="url(#paint0_linear_2882_25442)"/>
<path fill-rule="evenodd" clip-rule="evenodd" d="M13.0603 3.50601V7.71201H19.7737C20.9352 7.71201 21.8767 6.77046 21.8767 5.60901C21.8767 4.44755 20.9352 3.50601 19.7737 3.50601H13.0603ZM12.4876 7.71201C12.4494 6.8847 12.243 6.14278 11.8951 5.51282C11.508 4.81182 10.9456 4.24945 10.2446 3.86234C9.54364 3.47522 8.704 3.26335 7.76235 3.26335H6.87262C5.93097 3.26335 5.09134 3.47522 4.39034 3.86234C3.68934 4.24945 3.12697 4.81182 2.73985 5.51282C2.35274 6.21382 2.14087 7.05345 2.14087 7.99511C2.14087 8.93676 2.35274 9.77639 2.73985 10.4774C3.12697 11.1784 3.68934 11.7408 4.39034 12.1279C5.09134 12.515 5.93097 12.7269 6.87262 12.7269H7.76235C8.704 12.7269 9.54364 12.515 10.2446 12.1279C10.9456 11.7408 11.508 11.1784 11.8951 10.4774C12.243 9.84743 12.4494 9.10551 12.4876 8.2782H7.47926V7.71201H12.4876ZM13.0603 8.2782V12.4842H19.7737C20.9352 12.4842 21.8767 11.5427 21.8767 10.3812C21.8767 9.21975 20.9352 8.2782 19.7737 8.2782H13.0603Z" fill="white"/>
</g>
</g>
<defs>
<linearGradient id="paint0_linear_2882_25442" x1="20.2969" y1="-0.346124" x2="12.1893" y2="19.0414" gradientUnits="userSpaceOnUse">
<stop stop-color="#002253"/>
<stop offset="0.242548" stop-color="#0082B1"/>
<stop offset="1" stop-color="#0E9641"/>
</linearGradient>
<clipPath id="clip0_2882_25442">
<rect width="24" height="16" fill="white"/>
</clipPath>
</defs>
</svg>
