<svg width="17" height="17" viewBox="0 0 17 17" fill="none" xmlns="http://www.w3.org/2000/svg">
<g clip-path="url(#clip0_1677_23491)">
<path d="M12.022 0.0684814H4.02197C1.81283 0.0684814 0.0219727 1.85934 0.0219727 4.06848V12.0685C0.0219727 14.2776 1.81283 16.0685 4.02197 16.0685H12.022C14.2311 16.0685 16.022 14.2776 16.022 12.0685V4.06848C16.022 1.85934 14.2311 0.0684814 12.022 0.0684814Z" fill="url(#paint0_linear_1677_23491)"/>
<path d="M8.42878 5.36614C9.1988 5.36884 9.94322 5.6429 10.5312 6.14014C10.5921 6.19546 10.6719 6.22541 10.7542 6.22385C10.8366 6.22229 10.9152 6.18934 10.974 6.13174L11.574 5.52214C11.6044 5.49198 11.6283 5.45586 11.6441 5.41603C11.6599 5.37621 11.6673 5.33355 11.6658 5.29073C11.6644 5.24791 11.6541 5.20585 11.6356 5.1672C11.6171 5.12855 11.5908 5.09414 11.5584 5.06614C11.0834 4.66222 10.5344 4.35451 9.94198 4.16014L10.1316 3.26374C10.141 3.21782 10.1401 3.17037 10.1289 3.12484C10.1178 3.07932 10.0966 3.03685 10.0669 3.00054C10.0373 2.96422 9.99991 2.93497 9.95754 2.91491C9.91517 2.89484 9.86886 2.88447 9.82198 2.88454H8.65078C8.57828 2.88448 8.50794 2.9092 8.45142 2.95459C8.39489 2.99999 8.35557 3.06334 8.33998 3.13414L8.16958 3.93094C6.60958 4.00774 5.28958 4.77814 5.28958 6.35734C5.28958 7.72414 6.38038 8.30974 7.53358 8.71534C8.62438 9.12094 9.20038 9.27094 9.20038 9.84214C9.20038 10.4133 8.62438 10.7733 7.77598 10.7733C6.95228 10.7864 6.15654 10.4747 5.56078 9.90574C5.50139 9.84783 5.42173 9.81542 5.33878 9.81542C5.25584 9.81542 5.17617 9.84783 5.11678 9.90574L4.46518 10.5417C4.4348 10.5711 4.41065 10.6062 4.39415 10.6451C4.37765 10.6839 4.36914 10.7257 4.36914 10.7679C4.36914 10.8102 4.37765 10.8519 4.39415 10.8908C4.41065 10.9297 4.4348 10.9648 4.46518 10.9941C4.99535 11.4943 5.64347 11.8522 6.34918 12.0345L6.17398 12.8685C6.1645 12.9149 6.16529 12.9627 6.17627 13.0087C6.18726 13.0547 6.20818 13.0978 6.23757 13.1348C6.26696 13.1719 6.3041 13.202 6.3464 13.2232C6.38869 13.2444 6.43511 13.256 6.48238 13.2573H7.66198C7.73495 13.2582 7.80596 13.2338 7.86303 13.1883C7.92009 13.1428 7.95971 13.079 7.97518 13.0077L8.14438 12.2085C10.008 12.0885 11.1444 11.0913 11.1444 9.62134C11.1444 8.27014 10.0068 7.70134 8.62438 7.23334C7.83598 6.94774 7.15438 6.75334 7.15438 6.16654C7.15438 5.57974 7.79158 5.36614 8.42878 5.36614Z" fill="white"/>
</g>
<defs>
<linearGradient id="paint0_linear_1677_23491" x1="0.0219727" y1="8.06848" x2="16.022" y2="8.06848" gradientUnits="userSpaceOnUse">
<stop stop-color="#00C244"/>
<stop offset="1" stop-color="#00D64B"/>
</linearGradient>
<clipPath id="clip0_1677_23491">
<rect width="16" height="16" fill="white" transform="translate(0.0219727 0.0684814)"/>
</clipPath>
</defs>
</svg>
