<svg width="24" height="16" viewBox="0 0 24 16" fill="none" xmlns="http://www.w3.org/2000/svg">
<path d="M22.2099 15.9999L1.78792 15.9999C1.31814 16.0039 0.86623 15.8155 0.531348 15.4768C0.19481 15.1364 0.00391616 14.6723 8.49175e-06 14.1891L0 1.81301C0.00391616 1.32767 0.19481 0.863614 0.531348 0.523216C0.86623 0.184493 1.31813 -0.00391745 1.79006 7.08333e-05L22.2121 6.17735e-05C22.6819 -0.00391745 23.1338 0.184493 23.4686 0.523216C23.8052 0.863614 23.9961 1.32767 24 1.81091L24 14.1946C23.9939 14.6985 23.7907 15.1525 23.4661 15.4795C23.1431 15.8048 22.6998 16.0041 22.2099 15.9999Z" fill="white"/>
<path d="M22.2121 15.7499H22.2099H1.78792L1.7858 15.7499C1.38475 15.7533 0.997382 15.5926 0.709129 15.301C0.419307 15.0079 0.253646 14.6068 0.250008 14.188C0.250006 14.1877 0.250003 14.1874 0.25 14.1871L0.25 1.81406C0.253647 1.39301 0.41941 0.992025 0.709129 0.698982C0.997266 0.407542 1.38459 0.246653 1.78794 0.250062V0.250071H1.79006L22.2121 0.250071L22.2142 0.250053C22.6152 0.246656 23.0026 0.407424 23.2909 0.698982C23.5807 0.992143 23.7464 1.3932 23.75 1.81202C23.75 1.81232 23.75 1.81262 23.75 1.81293L23.75 14.1931C23.7443 14.63 23.5682 15.0218 23.2887 15.3033C23.0104 15.5836 22.6309 15.7535 22.2121 15.7499Z" stroke="black" stroke-opacity="0.2" stroke-width="0.5"/>
<path d="M12.5 15.9999H21.9775C22.543 15.9999 22.9844 15.957 23.4961 15.4414C23.9648 14.9141 23.9956 14.5342 24 13.999V11.603C20.4212 13.6696 16.5399 15.1536 12.5 15.9999Z" fill="#F27712"/>
<path d="M23.125 9.14908H22.2857L21.3406 7.89582H21.2509V9.14908H20.5665V6.03642H21.5769C22.3672 6.03642 22.8235 6.36407 22.8235 6.95383C22.8235 7.43712 22.5383 7.74838 22.025 7.84668L23.125 9.14908ZM22.1146 6.97841C22.1146 6.67533 21.8865 6.5197 21.4628 6.5197H21.2509V7.46169H21.4465C21.8865 7.46169 22.1146 7.29786 22.1146 6.97841ZM18.1709 6.03642H20.1102V6.56066H18.8554V7.25691H20.0613V7.78934H18.8554V8.63303H20.1102V9.15727H18.1709V6.03642ZM15.9709 9.23099L14.488 6.02823H15.2376L16.1746 8.12518L17.1198 6.02823H17.8531L16.3539 9.23099H15.9872H15.9709ZM9.77019 9.2228C8.72722 9.2228 7.91241 8.51016 7.91241 7.58456C7.91241 6.68352 8.74352 5.95451 9.78648 5.95451C10.0798 5.95451 10.3243 6.01184 10.6257 6.1429V6.86373C10.3974 6.63824 10.0902 6.51177 9.77019 6.51151C9.11833 6.51151 8.6213 6.9866 8.6213 7.58456C8.6213 8.21528 9.11019 8.6658 9.80278 8.6658C10.1124 8.6658 10.3487 8.5675 10.6257 8.32177V9.04259C10.3161 9.17365 10.0554 9.2228 9.77019 9.2228ZM7.70056 8.1989C7.70056 8.80505 7.20352 9.2228 6.48648 9.2228C5.965 9.2228 5.59019 9.04259 5.27241 8.63303L5.72056 8.24805C5.87537 8.52655 6.13611 8.6658 6.46204 8.6658C6.77167 8.6658 6.99167 8.4774 6.99167 8.23166C6.99167 8.09241 6.92648 7.98593 6.78796 7.90401C6.63608 7.82992 6.47792 7.76961 6.31537 7.72381C5.67167 7.51903 5.45167 7.29786 5.45167 6.86373C5.45167 6.35588 5.92426 5.97089 6.54352 5.97089C6.93463 5.97089 7.285 6.09376 7.57833 6.32311L7.21982 6.73267C7.07772 6.57607 6.87659 6.48687 6.66574 6.48693C6.37241 6.48693 6.16056 6.63438 6.16056 6.83097C6.16056 6.99479 6.28278 7.08489 6.69019 7.22414C7.47241 7.46988 7.70056 7.69923 7.70056 8.20709V8.1989ZM4.33537 6.03642H5.01982V9.15727H4.33537V6.03642ZM2.13537 9.15727H1.125V6.03642H2.13537C3.24352 6.03642 4.00944 6.67533 4.00944 7.59275C4.00944 8.05965 3.7813 8.50197 3.38204 8.79686C3.03981 9.04259 2.65685 9.15727 2.12722 9.15727H2.13537ZM2.93389 6.81458C2.70574 6.63438 2.445 6.56885 1.99685 6.56885H1.80944V8.63303H1.99685C2.43685 8.63303 2.71389 8.55112 2.93389 8.3873C3.17019 8.19071 3.3087 7.89582 3.3087 7.59275C3.3087 7.28967 3.17019 7.00298 2.93389 6.81458Z" fill="black"/>
<path d="M12.5322 5.95451C11.6359 5.95451 10.9026 6.67533 10.9026 7.56817C10.9026 8.51836 11.6033 9.23099 12.5322 9.23099C13.4448 9.23099 14.1618 8.51016 14.1618 7.59275C14.1618 6.67533 13.453 5.95451 12.5322 5.95451Z" fill="#F27712"/>
</svg>
