<svg width="26" height="17" viewBox="0 0 26 17" fill="none" xmlns="http://www.w3.org/2000/svg">
<path d="M23.2839 0.091301H2.76157C2.6761 0.091301 2.59047 0.091301 2.50515 0.0917992C2.43303 0.0923126 2.36108 0.0931129 2.28912 0.0950758C2.13219 0.0993187 1.97392 0.108575 1.81896 0.136418C1.66151 0.164744 1.51501 0.210948 1.37208 0.283696C1.23157 0.355131 1.10293 0.448566 0.99145 0.560059C0.879922 0.671552 0.786459 0.799942 0.715018 0.940562C0.642233 1.08345 0.595985 1.22996 0.567847 1.38747C0.539846 1.54244 0.530525 1.70063 0.526296 1.85735C0.524363 1.92928 0.523534 2.00121 0.523064 2.07313C0.522566 2.15861 0.522732 2.24402 0.522732 2.32965V13.8531C0.522732 13.9387 0.522566 14.024 0.523064 14.1097C0.523534 14.1816 0.524363 14.2535 0.526296 14.3254C0.530525 14.482 0.539846 14.6402 0.567847 14.7951C0.595985 14.9527 0.642233 15.0992 0.715018 15.2421C0.786459 15.3827 0.879922 15.5112 0.99145 15.6226C1.10293 15.7342 1.23157 15.8277 1.37208 15.8989C1.51501 15.9719 1.66151 16.0181 1.81896 16.0464C1.97392 16.074 2.13219 16.0835 2.28912 16.0877C2.36108 16.0893 2.43303 16.0903 2.50515 16.0906C2.59047 16.0913 2.6761 16.0913 2.76157 16.0913H23.2839C23.3692 16.0913 23.4548 16.0913 23.5401 16.0906C23.6121 16.0903 23.684 16.0893 23.7563 16.0877C23.9129 16.0835 24.0712 16.074 24.2265 16.0464C24.3837 16.0181 24.5303 15.9719 24.6732 15.8989C24.8139 15.8277 24.9421 15.7342 25.0538 15.6226C25.1652 15.5112 25.2586 15.3827 25.3303 15.2421C25.4032 15.0992 25.4494 14.9527 25.4774 14.7951C25.5054 14.6402 25.5145 14.482 25.5188 14.3254C25.5207 14.2535 25.5217 14.1816 25.522 14.1097C25.5227 14.024 25.5227 13.9387 25.5227 13.8531V2.32965C25.5227 2.24402 25.5227 2.15861 25.522 2.07313C25.5217 2.00121 25.5207 1.92928 25.5188 1.85735C25.5145 1.70063 25.5054 1.54244 25.4774 1.38747C25.4494 1.22996 25.4032 1.08345 25.3303 0.940562C25.2586 0.799942 25.1652 0.671552 25.0538 0.560059C24.9421 0.448566 24.8139 0.355131 24.6732 0.283696C24.5303 0.210948 24.3837 0.164744 24.2265 0.136418C24.0712 0.108575 23.9129 0.0993187 23.7563 0.0950758C23.684 0.0931129 23.6121 0.0923126 23.5401 0.0917992C23.4548 0.091301 23.3692 0.091301 23.2839 0.091301Z" fill="#10298D"/>
<path d="M23.2837 0.624611L23.5362 0.625094C23.6046 0.625577 23.673 0.626317 23.7417 0.628189C23.8613 0.631421 24.0013 0.637898 24.1317 0.661272C24.2451 0.681686 24.3402 0.71273 24.4315 0.759176C24.5215 0.804942 24.6041 0.864916 24.6762 0.936865C24.7485 1.0093 24.8086 1.09195 24.855 1.18301C24.9012 1.27353 24.932 1.36815 24.9523 1.48233C24.9756 1.61131 24.9821 1.75158 24.9854 1.8719C24.9872 1.93982 24.9881 2.00774 24.9884 2.07727C24.9891 2.16136 24.9891 2.2454 24.9891 2.32966V13.8531C24.9891 13.9374 24.9891 14.0213 24.9884 14.1071C24.9881 14.175 24.9872 14.243 24.9854 14.311C24.9821 14.4311 24.9756 14.5713 24.952 14.7018C24.932 14.8145 24.9012 14.9091 24.8547 15.0001C24.8085 15.0909 24.7485 15.1735 24.6765 15.2454C24.604 15.3179 24.5217 15.3777 24.4305 15.4239C24.34 15.4701 24.245 15.5011 24.1328 15.5213C23.9997 15.545 23.8539 15.5516 23.7441 15.5545C23.675 15.5561 23.6063 15.557 23.5358 15.5574C23.4519 15.558 23.3677 15.558 23.2837 15.558H2.76142C2.7603 15.558 2.75921 15.558 2.75808 15.558C2.6751 15.558 2.59195 15.558 2.50746 15.5573C2.43857 15.557 2.36984 15.5561 2.30338 15.5546C2.19107 15.5516 2.04518 15.5451 1.91319 15.5215C1.79996 15.5011 1.70503 15.4701 1.61326 15.4233C1.52295 15.3775 1.44074 15.3178 1.36823 15.2452C1.29627 15.1734 1.23648 15.091 1.19024 15.0001C1.14396 14.9092 1.113 14.8143 1.09264 14.7003C1.06911 14.5701 1.06265 14.4304 1.05942 14.3111C1.05757 14.2428 1.0568 14.1745 1.05636 14.1066L1.05603 13.9061L1.05605 13.8531V2.32966L1.05603 2.27672L1.05635 2.07664C1.0568 2.00831 1.05757 1.94 1.05942 1.87174C1.06265 1.75229 1.06911 1.61259 1.09284 1.48126C1.11302 1.36833 1.14396 1.27341 1.19048 1.18208C1.23635 1.0918 1.29626 1.00939 1.36859 0.937091C1.44064 0.865037 1.52312 0.805138 1.614 0.758934C1.70478 0.712715 1.79989 0.681686 1.91313 0.661317C2.04359 0.637883 2.18362 0.631421 2.30355 0.628174C2.37191 0.626317 2.44026 0.625577 2.50811 0.625109L2.76142 0.624611H23.2837Z" fill="#10298D"/>
<path fill-rule="evenodd" clip-rule="evenodd" d="M21.663 9.99658H19.5982L19.3202 11.0047H17.7233L19.4457 5.17132H21.7773L23.5227 11.0047H21.9587L21.663 9.99658ZM21.3561 8.86024L20.6332 6.33171L19.93 8.86024H21.3561ZM13.5064 11.0047V5.17132H16.3834C16.7783 5.17132 17.08 5.20472 17.2863 5.26952C17.7595 5.4205 18.0769 5.72913 18.2398 6.19542C18.324 6.43993 18.366 6.80869 18.366 7.30103C18.366 7.89292 18.32 8.31779 18.228 8.57699C18.0427 9.08871 17.6629 9.38332 17.0892 9.46014C17.0215 9.4715 16.7343 9.48152 16.2283 9.4902L15.972 9.49889H15.0507V11.0047H13.5064ZM15.0507 8.14544H16.0134C16.319 8.13408 16.5043 8.11003 16.572 8.07329C16.6627 8.02185 16.7238 7.91964 16.754 7.76666C16.7737 7.66445 16.7836 7.5128 16.7836 7.31239C16.7836 7.06521 16.7645 6.88217 16.7251 6.76259C16.6699 6.59558 16.5365 6.49337 16.3262 6.45663C16.2265 6.44863 16.1265 6.44573 16.0266 6.44794H15.0507V8.14544ZM7.1885 7.03248H5.7513C5.7513 6.79199 5.72304 6.63166 5.6685 6.55015C5.58307 6.42857 5.34649 6.36845 4.9614 6.36845C4.58617 6.36845 4.33711 6.40319 4.21553 6.47266C4.09462 6.54281 4.03416 6.69512 4.03416 6.93027C4.03416 7.14271 4.08805 7.28233 4.19516 7.34913C4.27271 7.39589 4.37391 7.42462 4.50139 7.4333L4.79186 7.45335C5.17994 7.47775 5.5677 7.50737 5.95502 7.5422C6.44657 7.5923 6.80143 7.72524 7.02289 7.94035C7.19638 8.10736 7.30087 8.32781 7.33373 8.59837C7.35278 8.7607 7.36198 8.94375 7.36198 9.1475C7.36198 9.61713 7.31861 9.96117 7.23055 10.1796C7.07021 10.5791 6.71009 10.8316 6.15085 10.9378C5.9169 10.9826 5.55941 11.0047 5.0764 11.0047C4.27205 11.0047 3.71084 10.9566 3.39409 10.8577C3.00637 10.7388 2.75008 10.4956 2.62588 10.1295C2.55622 9.9271 2.52271 9.5884 2.52271 9.11276H3.96056V9.23434C3.96056 9.48753 4.03219 9.65053 4.17545 9.72201C4.27402 9.77278 4.39362 9.79884 4.53425 9.80218H5.0626C5.33204 9.80218 5.50355 9.78815 5.57847 9.76009C5.7099 9.70665 5.79664 9.62247 5.8387 9.5049C5.85973 9.43141 5.87156 9.33789 5.87156 9.22365C5.87156 8.96713 5.77956 8.8108 5.5949 8.75469C5.5259 8.73264 5.20521 8.70125 4.63348 8.6625C4.17479 8.6291 3.85607 8.59703 3.67732 8.5663C3.2068 8.47678 2.89268 8.29241 2.73694 8.01316C2.59893 7.77601 2.52993 7.41727 2.52993 6.93695C2.52993 6.57086 2.56805 6.27759 2.64165 6.05714C2.71591 5.83669 2.83551 5.66901 3.00177 5.55477C3.24295 5.37841 3.55378 5.27553 3.93099 5.2448C4.27851 5.21537 4.62713 5.20133 4.97586 5.20272C5.57847 5.20272 6.00825 5.23745 6.26519 5.3076C6.8908 5.47862 7.2023 5.95693 7.2023 6.74255C7.2023 6.80735 7.1977 6.90288 7.1885 7.03248Z" fill="white"/>
<path fill-rule="evenodd" clip-rule="evenodd" d="M11.3147 5.95158C11.9737 5.95158 12.5607 6.2546 12.9473 6.72845L13.2917 5.99225C12.7296 5.46317 11.9855 5.16935 11.2127 5.1713C9.95448 5.1713 8.8783 5.92988 8.43668 7.003H7.76543L7.36865 7.85037H8.23218C8.21754 8.02548 8.21891 8.20156 8.23626 8.37642H7.80211L7.40602 9.2238H8.45706C8.91091 10.2705 9.97418 11.0046 11.2127 11.0046C11.8364 11.0046 12.416 10.8182 12.895 10.4996V9.46038C12.4965 9.91548 11.9203 10.1765 11.3147 10.1762C10.6047 10.1755 9.94307 9.81761 9.55499 9.22447H11.7542L12.151 8.37642H9.23023C9.20475 8.20222 9.20065 8.02557 9.218 7.85037H12.3963L12.7924 7.003H9.49248C9.86811 6.35299 10.5627 5.95223 11.3147 5.95158Z" fill="#FFCC02"/>
</svg>
