<svg width="24" height="16" viewBox="0 0 24 16" fill="none" xmlns="http://www.w3.org/2000/svg">
<path opacity="0.2" fill-rule="evenodd" clip-rule="evenodd" d="M2.18182 0C0.976833 0 0 0.89543 0 2V14C0 15.1046 0.976833 16 2.18182 16H21.8182C23.0232 16 24 15.1046 24 14V2C24 0.895431 23.0232 0 21.8182 0H2.18182ZM3.99997 4C3.44769 4 2.99997 4.44772 2.99997 5V8C2.99997 8.55229 3.44769 9 3.99997 9H8.99997C9.55226 9 9.99997 8.55229 9.99997 8V5C9.99997 4.44772 9.55226 4 8.99997 4H3.99997Z" fill="#1A1A1A" fill-opacity="0.6"/>
<path opacity="0.4" fill-rule="evenodd" clip-rule="evenodd" d="M4 11C3.44772 11 3 11.4477 3 12C3 12.5523 3.44772 13 4 13H5.5C6.05228 13 6.5 12.5523 6.5 12C6.5 11.4477 6.05228 11 5.5 11H4ZM8.8 11C8.24772 11 7.8 11.4477 7.8 12C7.8 12.5523 8.24772 13 8.8 13H10.3C10.8523 13 11.3 12.5523 11.3 12C11.3 11.4477 10.8523 11 10.3 11H8.8ZM12.6 12C12.6 11.4477 13.0477 11 13.6 11H15.1C15.6523 11 16.1 11.4477 16.1 12C16.1 12.5523 15.6523 13 15.1 13H13.6C13.0477 13 12.6 12.5523 12.6 12ZM18.5 11C17.9477 11 17.5 11.4477 17.5 12C17.5 12.5523 17.9477 13 18.5 13H20C20.5523 13 21 12.5523 21 12C21 11.4477 20.5523 11 20 11H18.5Z" fill="#1A1A1A" fill-opacity="0.6"/>
</svg>
