<svg width="32" height="32" viewBox="0 0 32 32" fill="none" xmlns="http://www.w3.org/2000/svg">
<rect width="32" height="32" fill="#D8DEE4"/>
<path fill-rule="evenodd" clip-rule="evenodd" d="M15.5924 5.09323C15.8499 4.96892 16.1501 4.96892 16.4076 5.09323L25.2934 9.38296C25.7255 9.59152 26 10.0289 26 10.5086V12.5C26 13.1904 25.4404 13.75 24.75 13.75H22.875V19.7331L25.309 20.9501C25.7325 21.1618 26 21.5947 26 22.0681V23.75C26 24.4404 25.4404 25 24.75 25H7.25C6.55964 25 6 24.4404 6 23.75V22.0691C6 21.5936 6.26982 21.1592 6.69613 20.9485L9.15841 19.7315L9.12952 13.75H7.25C6.55964 13.75 6 13.1904 6 12.5V10.5086C6 10.0289 6.27455 9.59152 6.70656 9.38296L15.5924 5.09323ZM21 20.3125V13.75H19.1249V20.3125C19.1249 20.8303 18.7052 21.25 18.1874 21.25C17.6697 21.25 17.2499 20.8303 17.2499 20.3125V13.75H14.75V20.3125C14.75 20.8303 14.3303 21.25 13.8125 21.25C13.2947 21.25 12.875 20.8303 12.875 20.3125V13.75H11.0045L11.0362 20.308C11.0379 20.6663 10.8353 20.9942 10.5141 21.1529L7.875 22.4574V23.125H24.125V22.4544L21.5182 21.151C21.2006 20.9922 21 20.6676 21 20.3125ZM24.125 11.875V10.9009L16 6.97853L7.875 10.9009V11.875H24.125Z" fill="#474E5A"/>
</svg>
