<svg width="24" height="16" viewBox="0 0 24 16" fill="none" xmlns="http://www.w3.org/2000/svg">
<path d="M21.9574 0H2.04255C0.914482 0 0 0.924315 0 2.06452V13.9355C0 15.0757 0.914482 16 2.04255 16H21.9574C23.0855 16 24 15.0757 24 13.9355V2.06452C24 0.924315 23.0855 0 21.9574 0Z" fill="white"/>
<path d="M2.04255 0.25H21.9574C22.9449 0.25 23.75 1.05986 23.75 2.06452V13.9355C23.75 14.9401 22.9449 15.75 21.9574 15.75H2.04255C1.05507 15.75 0.25 14.9401 0.25 13.9355V2.06452C0.25 1.05986 1.05507 0.25 2.04255 0.25Z" stroke="black" stroke-opacity="0.2" stroke-width="0.5"/>
<path d="M2.5917 5.84713C2.05743 5.55095 1.44767 5.31273 0.76593 5.14742L0.794526 5.01869H3.58974C3.96862 5.03211 4.27605 5.14733 4.37609 5.55426L4.98356 8.48161L5.16966 9.3633L6.87109 5.01869H8.70818L5.97738 11.3832H4.14019L2.5917 5.84713ZM10.0595 11.39H8.32218L9.40884 5.01869H11.1461L10.0595 11.39ZM16.3575 5.17445L16.1213 6.55025L15.9641 6.4826C15.6498 6.35378 15.2348 6.22504 14.67 6.23864C13.984 6.23864 13.6764 6.51638 13.6693 6.78754C13.6693 7.08582 14.0414 7.28239 14.6491 7.57391C15.65 8.02804 16.1143 8.58378 16.1074 9.30907C16.0933 10.6308 14.9065 11.4849 13.0836 11.4849C12.3042 11.4781 11.5535 11.3219 11.146 11.1458L11.3891 9.71563L11.6179 9.81743C12.1827 10.0549 12.5543 10.1563 13.248 10.1563C13.7482 10.1563 14.2845 9.95959 14.2913 9.53276C14.2913 9.25484 14.0628 9.05133 13.3907 8.73954C12.733 8.43442 11.8538 7.92615 11.868 7.01105C11.8754 5.77073 13.0836 4.9032 14.7993 4.9032C15.4713 4.9032 16.0149 5.04554 16.3575 5.17445ZM18.6666 9.13286H20.1107C20.0392 8.81431 19.7102 7.28924 19.7102 7.28924L19.5888 6.74025C19.503 6.97745 19.353 7.36383 19.3602 7.35022C19.3602 7.35022 18.8097 8.76684 18.6666 9.13286ZM20.8111 5.01869L22.2127 11.3899H20.6041C20.6041 11.3899 20.4467 10.6578 20.3968 10.4342H18.1662C18.1017 10.6035 17.8016 11.3899 17.8016 11.3899H15.9787L18.5593 5.54732C18.7381 5.13382 19.0529 5.01869 19.4673 5.01869H20.8111Z" fill="#1434CB"/>
</svg>
